<svg xmlns="http://www.w3.org/2000/svg" width="10" height="13" viewBox="0 0 10 13">
    <g fill="none" fill-rule="nonzero">
        <path fill="#1D4371" d="M8.233 7.743c-.42.378-.906.672-1.446.875l-.03.01-.025 1.48-3.464-.061.026-1.479-.029-.011a4.483 4.483 0 0 1-1.415-.925A4.165 4.165 0 0 1 .914 6.29a3.87 3.87 0 0 1-.321-1.62c.01-.56.136-1.1.377-1.607.234-.492.565-.932.983-1.309.42-.378.906-.672 1.446-.875a4.782 4.782 0 0 1 1.766-.3C5.777.589 6.366.71 6.92.94c.533.22 1.01.53 1.416.925.404.39.72.842.936 1.341.223.515.33 1.06.32 1.62a3.87 3.87 0 0 1-.377 1.608 4.139 4.139 0 0 1-.98 1.308z"/>
        <path fill="#4A90E2" d="M6.667 12.086H3.333a.463.463 0 0 0-.468.457c0 .253.21.457.468.457h3.334c.259 0 .468-.204.468-.457a.463.463 0 0 0-.468-.457zM10 4.748C10 2.125 7.762 0 5 0S0 2.125 0 4.748C0 6.505 1.005 8.04 2.5 8.86v.788c0 .506.42.915.937.915h3.125a.925.925 0 0 0 .938-.915V8.86C8.995 8.04 10 6.505 10 4.748zM7.882 7.451a4.094 4.094 0 0 1-1.292.828l-.026.01v1.36H3.437v-1.36l-.026-.01A4.036 4.036 0 0 1 2.12 7.45a3.828 3.828 0 0 1-.866-1.219 3.616 3.616 0 0 1-.315-1.484c0-.515.105-1.014.315-1.484.203-.456.495-.866.866-1.219a4.094 4.094 0 0 1 1.291-.828A4.245 4.245 0 0 1 5 .913a4.24 4.24 0 0 1 1.589.304c.484.195.919.473 1.291.828.371.353.663.763.866 1.219.21.47.315.969.315 1.484s-.105 1.014-.315 1.484a3.804 3.804 0 0 1-.864 1.219z"/>
    </g>
</svg>
