<svg xmlns="http://www.w3.org/2000/svg" width="24" height="24" viewBox="0 0 24 24">
    <path fill="#FFF" fill-rule="nonzero" d="M12 0c3.333 0 6.167 1.167 8.5 3.5S24 8.667 24 12c0 3.3-1.167 6.125-3.5 8.475C18.167 22.825 15.333 24 12 24c-3.3 0-6.125-1.175-8.475-3.525C1.175 18.125 0 15.3 0 12c0-3.333 1.175-6.167 3.525-8.5C5.875 1.167 8.7 0 12 0M9.05 16.95v-7.8h-2.4v7.8h2.4m-1.2-8.8c.867 0 1.3-.4 1.3-1.2 0-.8-.433-1.2-1.3-1.2-.367 0-.675.117-.925.35a1.12 1.12 0 0 0-.375.85c0 .8.433 1.2 1.3 1.2m10.1 8.8v-4.6c0-1.1-.258-1.942-.775-2.525s-1.192-.875-2.025-.875c-1.1 0-1.9.417-2.4 1.25h-.05l-.15-1.05h-2.1c.033.467.05 1.3.05 2.5v5.3h2.45v-4.5c0-.3.033-.5.1-.6.2-.633.617-.95 1.25-.95.8 0 1.2.567 1.2 1.7v4.35h2.45"/>
</svg>
