<svg xmlns="http://www.w3.org/2000/svg" width="15" height="16" viewBox="0 0 15 16">
    <path fill="#4A90E2" fill-rule="evenodd" d="M11.624 10.038l2.25 2.68a1 1 0 0 1-.123 1.41l-.904.758a1 1 0 0 1-1.409-.123L9.145 12.03c-.5.229-1.037.399-1.605.499C4.032 13.147.698 10.87.094 7.444-.51 4.018 1.844.74 5.352.12c3.508-.619 6.842 1.658 7.446 5.084a6.214 6.214 0 0 1-1.174 4.834zm-4.565-.24c1.964-.345 3.282-2.182 2.944-4.1-.338-1.92-2.205-3.194-4.17-2.848-1.964.346-3.282 2.183-2.944 4.102.338 1.919 2.205 3.193 4.17 2.847z"/>
</svg>
