<svg xmlns="http://www.w3.org/2000/svg" width="14" height="14" viewBox="0 0 14 14">
    <g fill="none" fill-rule="evenodd">
        <path fill="#FFF" d="M7.15.65a6.5 6.5 0 0 1 6.5 6.5"/>
        <path stroke="#727272" stroke-width="1.3" d="M7.15.65a6.5 6.5 0 0 1 6.5 6.5"/>
        <path fill="#FFF" d="M.65 7.15c0-1.784.719-3.4 1.883-4.575"/>
        <path stroke="#727272" stroke-width="1.3" d="M.65 7.15c0-1.784.719-3.4 1.883-4.575"/>
        <path fill="#FFF" d="M7.15 13.65a6.5 6.5 0 0 1-6.5-6.5"/>
        <path stroke="#727272" stroke-width="1.3" d="M7.15 13.65a6.5 6.5 0 0 1-6.5-6.5"/>
        <path fill="#FFF" d="M13.65 7.15a6.496 6.496 0 0 1-3.058 5.515"/>
        <path stroke="#727272" stroke-width="1.3" d="M13.65 7.15a6.496 6.496 0 0 1-3.058 5.515"/>
        <path stroke="#727272" stroke-linecap="round" stroke-linejoin="round" stroke-width="1.5" d="M4.83 7.428L6.497 9.65l3.333-5"/>
        <path fill="#727272" d="M5.15 5.357V.65H.442zM9.15 8.943v4.707h4.708z"/>
    </g>
</svg>
