<svg xmlns="http://www.w3.org/2000/svg" width="24" height="24" viewBox="0 0 24 24">
    <path fill="#FFF" fill-rule="nonzero" d="M12 0c3.333 0 6.167 1.167 8.5 3.5S24 8.667 24 12c0 3.3-1.167 6.125-3.5 8.475C18.167 22.825 15.333 24 12 24c-3.3 0-6.125-1.175-8.475-3.525C1.175 18.125 0 15.3 0 12c0-3.333 1.175-6.167 3.525-8.5C5.875 1.167 8.7 0 12 0m4.9 9.8c.5-.367.883-.767 1.15-1.2-.533.2-.983.317-1.35.35.5-.3.85-.733 1.05-1.3-.5.267-1 .45-1.5.55-.467-.467-1.05-.7-1.75-.7-.667 0-1.225.233-1.675.7a2.299 2.299 0 0 0-.675 1.65c0 .033.008.117.025.25s.025.233.025.3c-2-.1-3.617-.933-4.85-2.5-.233.4-.35.8-.35 1.2 0 .833.367 1.483 1.1 1.95-.433 0-.8-.1-1.1-.3v.05c0 .567.175 1.067.525 1.5.35.433.808.7 1.375.8-.267.067-.467.1-.6.1-.2 0-.35-.017-.45-.05.333 1.1 1.067 1.65 2.2 1.65-.833.667-1.817 1-2.95 1h-.55c1.133.7 2.333 1.05 3.6 1.05 2.033 0 3.667-.692 4.9-2.075 1.233-1.383 1.85-2.942 1.85-4.675v-.3"/>
</svg>
